<?xml version="1.0" encoding="UTF-8" standalone="no"?>
<!-- Created with Inkscape (http://www.inkscape.org/) -->

<svg
   xmlns:dc="http://purl.org/dc/elements/1.1/"
   xmlns:cc="http://creativecommons.org/ns#"
   xmlns:rdf="http://www.w3.org/1999/02/22-rdf-syntax-ns#"
   xmlns:svg="http://www.w3.org/2000/svg"
   xmlns="http://www.w3.org/2000/svg"
   xmlns:sodipodi="http://sodipodi.sourceforge.net/DTD/sodipodi-0.dtd"
   xmlns:inkscape="http://www.inkscape.org/namespaces/inkscape"
   width="178.16667mm"
   height="178.16667mm"
   viewBox="0 0 178.16667 178.16666"
   version="1.1"
   id="svg8"
   inkscape:version="0.92.5 (2060ec1f9f, 2020-04-08)"
   sodipodi:docname="checksumo.svg">
  <defs
     id="defs2">
    <filter
       style="color-interpolation-filters:sRGB;"
       inkscape:label="Drop Shadow"
       id="filter1209">
      <feFlood
         flood-opacity="0.498039"
         flood-color="rgb(0,0,0)"
         result="flood"
         id="feFlood1199" />
      <feComposite
         in="flood"
         in2="SourceGraphic"
         operator="in"
         result="composite1"
         id="feComposite1201" />
      <feGaussianBlur
         in="composite1"
         stdDeviation="10"
         result="blur"
         id="feGaussianBlur1203" />
      <feOffset
         dx="0"
         dy="0"
         result="offset"
         id="feOffset1205" />
      <feComposite
         in="SourceGraphic"
         in2="offset"
         operator="over"
         result="composite2"
         id="feComposite1207" />
    </filter>
  </defs>
  <sodipodi:namedview
     id="base"
     pagecolor="#ffffff"
     bordercolor="#666666"
     borderopacity="1.0"
     inkscape:pageopacity="0.0"
     inkscape:pageshadow="2"
     inkscape:zoom="0.35"
     inkscape:cx="-177.30033"
     inkscape:cy="56.86124"
     inkscape:document-units="mm"
     inkscape:current-layer="layer1"
     showgrid="false"
     fit-margin-top="15"
     fit-margin-left="15"
     fit-margin-right="15"
     fit-margin-bottom="15"
     inkscape:window-width="1920"
     inkscape:window-height="1053"
     inkscape:window-x="0"
     inkscape:window-y="27"
     inkscape:window-maximized="1" />
  <metadata
     id="metadata5">
    <rdf:RDF>
      <cc:Work
         rdf:about="">
        <dc:format>image/svg+xml</dc:format>
        <dc:type
           rdf:resource="http://purl.org/dc/dcmitype/StillImage" />
        <dc:title />
      </cc:Work>
    </rdf:RDF>
  </metadata>
  <g
     inkscape:label="Layer 1"
     inkscape:groupmode="layer"
     id="layer1"
     transform="translate(-15.916664,-59.416664)"
     style="display:inline">
    <circle
       style="fill:#1a1a1a;stroke-width:0.26458332;filter:url(#filter1209)"
       id="path12"
       cx="105"
       cy="148.5"
       r="74.083336" />
    <flowRoot
       xml:space="preserve"
       id="flowRoot14"
       style="font-style:normal;font-weight:normal;font-size:40px;line-height:1.25;font-family:sans-serif;letter-spacing:0px;word-spacing:0px;fill:#e6e6e6;fill-opacity:1;stroke:none"
       transform="matrix(0.26458333,0,0,0.26458333,17.28365,53.624139)"><flowRegion
         id="flowRegion16"
         style="fill:#e6e6e6"><rect
           id="rect18"
           width="462.85715"
           height="457.14288"
           x="100"
           y="148.23398"
           style="fill:#e6e6e6" /></flowRegion><flowPara
         id="flowPara20"
         style="font-size:400px;text-align:center;text-anchor:middle;fill:#e6e6e6">#</flowPara></flowRoot>  </g>
  <g
     inkscape:groupmode="layer"
     id="layer2"
     inkscape:label="Layer 2"
     style="display:inline"
     transform="translate(15,15)">
    <path
       style="color:#000000;font-style:normal;font-variant:normal;font-weight:normal;font-stretch:normal;font-size:medium;line-height:normal;font-family:sans-serif;font-variant-ligatures:normal;font-variant-position:normal;font-variant-caps:normal;font-variant-numeric:normal;font-variant-alternates:normal;font-feature-settings:normal;text-indent:0;text-align:start;text-decoration:none;text-decoration-line:none;text-decoration-style:solid;text-decoration-color:#000000;letter-spacing:normal;word-spacing:normal;text-transform:none;writing-mode:lr-tb;direction:ltr;text-orientation:mixed;dominant-baseline:auto;baseline-shift:baseline;text-anchor:start;white-space:normal;shape-padding:0;clip-rule:nonzero;display:inline;overflow:visible;visibility:visible;opacity:1;isolation:auto;mix-blend-mode:normal;color-interpolation:sRGB;color-interpolation-filters:linearRGB;solid-color:#000000;solid-opacity:1;vector-effect:none;fill-opacity:1;fill-rule:nonzero;stroke:#ffffff;stroke-width:0.75595242;stroke-linecap:butt;stroke-linejoin:miter;stroke-miterlimit:4;stroke-dasharray:none;stroke-dashoffset:0;stroke-opacity:1;color-rendering:auto;image-rendering:auto;shape-rendering:auto;text-rendering:auto;enable-background:accumulate"
       d="m 67.632047,35.863445 -2.644801,11.062372 -2.50734,10.488766 -8.910566,0.205671 -9.570992,0.22066 v 3.74809 3.756361 h 8.604125 7.742164 l -2.154907,8.601543 -2.2009,8.785508 h -8.682675 -9.3555 v 4.157369 4.157887 h 8.315254 c 2.53292,0 4.510008,0.07254 5.835819,0.206187 0.662906,0.06683 1.165728,0.150821 1.472264,0.238231 0.123409,0.03519 0.186227,0.06648 0.235127,0.09147 -0.0061,0.05001 -0.007,0.06681 -0.02429,0.164846 -0.02919,0.16563 -0.07313,0.390465 -0.130225,0.664044 -0.114192,0.547161 -0.280104,1.291172 -0.485241,2.176094 -0.410273,1.769849 -0.976775,4.104 -1.599903,6.572206 -0.624192,2.47243 -1.191694,4.80961 -1.603518,6.58616 -0.205915,0.88827 -0.37324,1.63616 -0.489376,2.19263 -0.05807,0.27823 -0.103386,0.50811 -0.134877,0.68678 -0.03149,0.17867 -0.05168,0.28174 -0.05168,0.40979 0,0.16662 0.07761,0.31502 0.167947,0.416 0.09034,0.10098 0.19471,0.17118 0.310576,0.23306 0.231735,0.12376 0.518147,0.21363 0.864031,0.28991 0.691767,0.15254 1.618094,0.23926 2.663921,0.23926 h 3.925858 L 59.862494,101.34213 62.3626,91.047672 h 7.48895 c 2.479582,0 4.419121,0.07301 5.720064,0.206706 0.650472,0.06684 1.143606,0.150669 1.443839,0.237712 0.120197,0.03485 0.180287,0.06585 0.227893,0.09043 -0.0061,0.04988 -0.0064,0.06726 -0.02377,0.16588 -0.02919,0.16563 -0.07313,0.390465 -0.130225,0.664044 -0.114194,0.547161 -0.280622,1.291172 -0.485759,2.176094 -0.410271,1.769849 -0.976776,4.104 -1.599901,6.572212 -0.624195,2.47243 -1.191694,4.80961 -1.603521,6.58616 -0.205914,0.88827 -0.372724,1.63616 -0.48886,2.19263 -0.05807,0.27823 -0.103383,0.50811 -0.134874,0.68678 -0.03149,0.17867 -0.05219,0.28174 -0.05219,0.40979 0,0.16662 0.07813,0.31501 0.168465,0.416 0.09034,0.10098 0.19471,0.17118 0.310576,0.23306 0.231733,0.12376 0.517628,0.21363 0.863513,0.28991 0.691769,0.15254 1.618612,0.23926 2.664436,0.23926 h 3.925343 l 2.640665,-10.87221 2.499588,-10.29446 h 9.001519 9.675889 v -4.157887 -4.157369 h -8.744164 c -3.804163,0 -5.897496,-0.03653 -6.914306,-0.205155 -0.508405,-0.08431 -0.704302,-0.213384 -0.734838,-0.25373 -0.01527,-0.02018 -0.02087,-0.02735 -0.02119,-0.08578 -3.2e-4,-0.05843 0.01668,-0.161007 0.05581,-0.294039 0.223133,-0.758658 0.941504,-3.546957 1.61282,-6.251816 0.670396,-2.701157 1.55194,-6.189159 1.957504,-7.744229 l 0.665591,-2.552298 h 8.750373 9.42009 V 61.56575 57.785618 h -8.31525 c -3.338488,0 -5.323538,-0.05019 -6.419762,-0.212905 -0.548114,-0.08136 -0.865368,-0.198207 -0.999424,-0.293007 -0.134054,-0.0948 -0.14056,-0.125611 -0.14056,-0.294037 0,-0.06278 0.05806,-0.503422 0.172082,-1.094507 0.114028,-0.591087 0.280231,-1.375365 0.485244,-2.293916 0.410022,-1.837108 0.975995,-4.213 1.598869,-6.680213 0.624194,-2.472436 1.191694,-4.810131 1.603518,-6.586678 0.205914,-0.888275 0.373242,-1.635649 0.489376,-2.192115 0.05807,-0.278233 0.103385,-0.50863 0.134876,-0.687295 0.03149,-0.178668 0.05168,-0.281744 0.05168,-0.409795 0,-0.167603 -0.07877,-0.316489 -0.170016,-0.417547 -0.09124,-0.101057 -0.196686,-0.171299 -0.313674,-0.233061 -0.233976,-0.123523 -0.523447,-0.212812 -0.87385,-0.288869 -0.700805,-0.152114 -1.641166,-0.238231 -2.706812,-0.238228 h -3.981669 l -2.092378,8.412922 c -1.111137,4.468577 -2.35771,9.405328 -2.766756,10.956438 l -0.673344,2.552813 h -7.239351 c -3.153871,0 -5.03681,-0.0515 -6.075082,-0.213939 -0.519137,-0.08122 -0.81669,-0.196937 -0.94206,-0.289388 -0.125373,-0.09245 -0.134877,-0.127079 -0.134877,-0.296622 0,-0.06278 0.05806,-0.503422 0.172083,-1.094507 0.114025,-0.591087 0.279715,-1.375365 0.484724,-2.293916 0.410025,-1.837108 0.976511,-4.213 1.599385,-6.680213 0.624198,-2.472436 1.191694,-4.810131 1.603521,-6.586678 0.205912,-0.888275 0.372724,-1.635649 0.48886,-2.192115 0.05807,-0.278233 0.103383,-0.50863 0.134874,-0.687295 0.03149,-0.178668 0.05219,-0.281744 0.05219,-0.409795 0,-0.168174 -0.07979,-0.317484 -0.171566,-0.418579 -0.09177,-0.101094 -0.197591,-0.170852 -0.315227,-0.232544 -0.23527,-0.123386 -0.526511,-0.212937 -0.879531,-0.288873 -0.706046,-0.15187 -1.654468,-0.237709 -2.731616,-0.237709 z m 0.596345,0.755507 h 3.422015 c 1.035928,0 1.947285,0.08659 2.572969,0.221176 0.312841,0.06729 0.555236,0.149852 0.687295,0.219109 0.04454,0.02335 0.05505,0.0347 0.07183,0.04806 -0.0044,0.03528 -0.0087,0.0861 -0.03101,0.212389 -0.02919,0.165629 -0.07313,0.390462 -0.130225,0.664043 -0.114191,0.547159 -0.280104,1.29117 -0.48524,2.176095 -0.410274,1.769846 -0.976776,4.104 -1.599904,6.572208 -0.624446,2.473433 -1.192477,4.854061 -1.604552,6.700366 -0.206039,0.923153 -0.373071,1.712719 -0.489376,2.31562 -0.116303,0.602901 -0.185518,0.97644 -0.185518,1.237652 0,0.324483 0.142025,0.683771 0.441833,0.904854 0.299807,0.221081 0.700296,0.338587 1.274342,0.428397 1.14809,0.179621 3.030415,0.222727 6.191869,0.222727 h 7.821744 l 0.821656,-3.116091 c 0.41329,-1.567198 1.658228,-6.496216 2.769857,-10.966772 l 1.949235,-7.839832 h 3.391006 c 1.023842,0 1.926561,0.08711 2.546615,0.221692 0.310028,0.06729 0.550344,0.149563 0.681095,0.218593 0.04412,0.02329 0.05475,0.03428 0.07131,0.04754 -0.0044,0.035 -0.0087,0.08629 -0.031,0.212907 -0.02919,0.165629 -0.07313,0.390462 -0.130226,0.664043 -0.114194,0.547159 -0.280622,1.29117 -0.485759,2.176095 -0.410271,1.769846 -0.976775,4.104 -1.599901,6.572208 -0.624446,2.473433 -1.191961,4.854061 -1.604036,6.700366 -0.206039,0.923153 -0.373073,1.712719 -0.489376,2.31562 -0.116306,0.602901 -0.186037,0.97644 -0.186037,1.237652 0,0.327618 0.150585,0.691941 0.460439,0.911056 0.309851,0.219112 0.723704,0.334576 1.324467,0.423746 1.201523,0.17834 3.185364,0.221176 6.530871,0.221176 h 7.55923 v 3.024103 3.023589 h -8.66407 -9.334321 l -0.812872,3.117638 c -0.407691,1.563235 -1.289007,5.048597 -1.960086,7.752498 -0.670158,2.700198 -1.399685,5.524775 -1.604552,6.221325 -0.04938,0.167886 -0.08728,0.332603 -0.0863,0.51108 9.76e-4,0.178477 0.05285,0.377682 0.174148,0.537954 0.242605,0.320542 0.635752,0.447159 1.214396,0.543118 1.15729,0.191918 3.229702,0.215492 7.037813,0.215492 h 7.988144 v 3.401341 3.401861 H 94.798347 85.20255 l -2.640147,10.872204 -2.500106,10.29446 h -3.331065 c -1.002977,0 -1.891308,-0.0871 -2.501656,-0.22169 -0.305174,-0.0673 -0.541732,-0.14944 -0.670243,-0.21807 -0.0434,-0.0232 -0.05357,-0.0345 -0.06976,-0.0476 0.0043,-0.0347 0.0092,-0.0865 0.03152,-0.21342 0.02919,-0.16563 0.07313,-0.38995 0.130225,-0.66353 0.114194,-0.54716 0.280104,-1.29117 0.485241,-2.17609 0.410273,-1.76985 0.976775,-4.104 1.599903,-6.57221 0.624195,-2.472436 1.191694,-4.810128 1.603518,-6.586678 0.205915,-0.888275 0.373243,-1.636164 0.489376,-2.192631 0.05807,-0.278233 0.103386,-0.508114 0.134877,-0.686779 0.03149,-0.178665 0.05168,-0.281741 0.05168,-0.409794 0,-0.237213 -0.160923,-0.405062 -0.301274,-0.497129 -0.14035,-0.09206 -0.297066,-0.151251 -0.488341,-0.206705 -0.382553,-0.110908 -0.903288,-0.19476 -1.577681,-0.264065 -1.348793,-0.13861 -3.302839,-0.210323 -5.797063,-0.210323 h -8.083228 l -2.64015,10.872204 -2.500106,10.29446 h -3.331577 c -1.002978,0 -1.890792,-0.0871 -2.501141,-0.22169 -0.305173,-0.0673 -0.54225,-0.14944 -0.670758,-0.21807 -0.04303,-0.023 -0.05296,-0.0339 -0.06925,-0.047 0.0043,-0.0345 0.0086,-0.0867 0.031,-0.21394 0.02919,-0.16563 0.07313,-0.38995 0.130225,-0.66353 0.114194,-0.54716 0.280622,-1.29117 0.485759,-2.17609 0.410274,-1.76985 0.976776,-4.104 1.599901,-6.57221 0.624197,-2.472436 1.191694,-4.810128 1.603521,-6.586678 0.205912,-0.888275 0.372723,-1.636164 0.48886,-2.192631 0.05807,-0.278233 0.103383,-0.508114 0.134874,-0.686779 0.03149,-0.178665 0.05219,-0.281741 0.05219,-0.409794 0,-0.239758 -0.164163,-0.407091 -0.305925,-0.498679 -0.141761,-0.09159 -0.300553,-0.150355 -0.494543,-0.205671 -0.38798,-0.110633 -0.917067,-0.19435 -1.60352,-0.263549 -1.372907,-0.138401 -3.364577,-0.210323 -5.911784,-0.210323 h -7.559228 v -3.401861 -3.401341 h 8.599474 9.272302 l 2.34456,-9.357569 2.390553,-9.541536 h -8.711097 -7.8481 v -3.000335 -3.009117 l 8.832535,-0.204123 9.492962,-0.218591 2.642732,-11.055657 z m 0.104386,27.970387 -0.812869,3.117638 c -0.407694,1.563235 -1.28901,5.048597 -1.960086,7.752498 -0.670161,2.700198 -1.39917,5.524775 -1.604037,6.221325 -0.09831,0.334235 -0.157387,0.716717 0.07286,1.039215 0.230251,0.322498 0.614296,0.454644 1.167887,0.551386 1.10718,0.193485 3.077178,0.217043 6.691579,0.217043 h 8.250145 l 0.830956,-3.115574 c 0.767455,-2.875878 1.533292,-6.054294 2.109433,-8.67854 0.28807,-1.312122 0.528714,-2.485464 0.698664,-3.415294 0.16995,-0.929831 0.272113,-1.591892 0.275436,-1.98541 0.0029,-0.339156 -0.07358,-0.708287 -0.346749,-0.975132 -0.273167,-0.266849 -0.662832,-0.40322 -1.220081,-0.501261 -1.1145,-0.196086 -2.991472,-0.227894 -6.330363,-0.227894 z m 0.584462,0.756026 h 7.238317 c 3.333194,0 5.220062,0.04367 6.199621,0.216008 0.489781,0.08617 0.729443,0.207084 0.82269,0.298172 0.09324,0.09109 0.120939,0.180454 0.118857,0.427363 -0.0021,0.249611 -0.09556,0.939927 -0.263036,1.856219 -0.167473,0.916292 -0.406762,2.082906 -0.693497,3.388939 -0.573466,2.612073 -1.337188,5.783146 -2.101164,8.645986 l -0.681612,2.554364 h -7.6693 c -3.610144,0 -5.601274,-0.03789 -6.561354,-0.205671 -0.480042,-0.08389 -0.655945,-0.207857 -0.683162,-0.245981 -0.02722,-0.03812 -0.04108,-0.120893 0.03721,-0.387056 0.223134,-0.758658 0.941507,-3.546957 1.612821,-6.251816 0.670399,-2.701157 1.551943,-6.189159 1.957504,-7.744229 z"
       id="path87"
       inkscape:connector-curvature="0" />
  </g>
</svg>
