<?xml version="1.0" encoding="UTF-8" standalone="no"?>
<svg
   xmlns:dc="http://purl.org/dc/elements/1.1/"
   xmlns:cc="http://creativecommons.org/ns#"
   xmlns:rdf="http://www.w3.org/1999/02/22-rdf-syntax-ns#"
   xmlns:svg="http://www.w3.org/2000/svg"
   xmlns="http://www.w3.org/2000/svg"
   xmlns:xlink="http://www.w3.org/1999/xlink"
   xmlns:sodipodi="http://sodipodi.sourceforge.net/DTD/sodipodi-0.dtd"
   xmlns:inkscape="http://www.inkscape.org/namespaces/inkscape"
   width="64px"
   height="64px"
   id="svg4332"
   version="1.1"
   inkscape:version="1.0.2 (e86c870879, 2021-01-15)"
   sodipodi:docname="checksumo.svg">
  <defs
     id="defs4334">
    <linearGradient
       gradientTransform="matrix(1,0,0,-1,-81.932439,92.086123)"
       gradientUnits="userSpaceOnUse"
       xlink:href="#linearGradient4213-9"
       id="linearGradient4225-5"
       y2="32.521935"
       x2="38.856056"
       y1="26.320496"
       x1="38.856056" />
    <linearGradient
       id="linearGradient4213-9">
      <stop
         offset="0"
         style="stop-color:#000000;stop-opacity:1"
         id="stop4215-4" />
      <stop
         offset="1"
         style="stop-color:#000000;stop-opacity:0"
         id="stop4217-1" />
    </linearGradient>
    <linearGradient
       inkscape:collect="always"
       xlink:href="#linearGradient4270"
       id="linearGradient3904"
       gradientUnits="userSpaceOnUse"
       gradientTransform="matrix(1.4324324,0,0,1.4362832,-2.3783747,-2.4707827)"
       x1="23.99999"
       y1="5.9093657"
       x2="23.99999"
       y2="42.091705" />
    <linearGradient
       id="linearGradient4270">
      <stop
         offset="0"
         style="stop-color:#ffffff;stop-opacity:1"
         id="stop4272" />
      <stop
         offset="0.0348749"
         style="stop-color:#ffffff;stop-opacity:0.23529412"
         id="stop4274" />
      <stop
         offset="0.96216321"
         style="stop-color:#ffffff;stop-opacity:0.15686275"
         id="stop4276" />
      <stop
         offset="1"
         style="stop-color:#ffffff;stop-opacity:0.39215687"
         id="stop4278" />
    </linearGradient>
    <linearGradient
       id="linearGradient2867-449-88-871-390-598-476-591-434-148-57-177-8-3-3-6-4-8-8-8-5">
      <stop
         offset="0"
         style="stop-color:#919caf;stop-opacity:1;"
         id="stop3750-1-0-7-6-6-1-3-9-3" />
      <stop
         offset="0.26238"
         style="stop-color:#68758e;stop-opacity:1;"
         id="stop3752-3-7-4-0-32-8-923-0-7" />
      <stop
         offset="0.704952"
         style="stop-color:#485a6c;stop-opacity:1;"
         id="stop3754-1-8-5-2-7-6-7-1-9" />
      <stop
         offset="1"
         style="stop-color:#444c5c;stop-opacity:1;"
         id="stop3756-1-6-2-6-6-1-96-6-0" />
    </linearGradient>
    <radialGradient
       cx="4.9929786"
       cy="43.5"
       r="2.5"
       fx="4.9929786"
       fy="43.5"
       id="radialGradient2873-966-168-714"
       xlink:href="#linearGradient3688-166-749-654"
       gradientUnits="userSpaceOnUse"
       gradientTransform="matrix(2.003784,0,0,1.4,27.98813,-17.4)" />
    <linearGradient
       id="linearGradient3688-166-749-654">
      <stop
         id="stop3088"
         style="stop-color:#181818;stop-opacity:1"
         offset="0" />
      <stop
         id="stop3090"
         style="stop-color:#181818;stop-opacity:0"
         offset="1" />
    </linearGradient>
    <radialGradient
       cx="4.9929786"
       cy="43.5"
       r="2.5"
       fx="4.9929786"
       fy="43.5"
       id="radialGradient2875-742-326-419"
       xlink:href="#linearGradient3688-464-309-604"
       gradientUnits="userSpaceOnUse"
       gradientTransform="matrix(2.003784,0,0,1.4,-20.01187,-104.4)" />
    <linearGradient
       id="linearGradient3688-464-309-604">
      <stop
         id="stop3094"
         style="stop-color:#181818;stop-opacity:1"
         offset="0" />
      <stop
         id="stop3096"
         style="stop-color:#181818;stop-opacity:0"
         offset="1" />
    </linearGradient>
    <linearGradient
       x1="25.058096"
       y1="47.027729"
       x2="25.058096"
       y2="39.999443"
       id="linearGradient2877-634-617-908"
       xlink:href="#linearGradient3702-501-757-795"
       gradientUnits="userSpaceOnUse" />
    <linearGradient
       id="linearGradient3702-501-757-795">
      <stop
         id="stop3100"
         style="stop-color:#181818;stop-opacity:0"
         offset="0" />
      <stop
         id="stop3102"
         style="stop-color:#181818;stop-opacity:1"
         offset="0.5" />
      <stop
         id="stop3104"
         style="stop-color:#181818;stop-opacity:0"
         offset="1" />
    </linearGradient>
  </defs>
  <sodipodi:namedview
     id="base"
     pagecolor="#ffffff"
     bordercolor="#666666"
     borderopacity="1.0"
     inkscape:pageopacity="0.0"
     inkscape:pageshadow="2"
     inkscape:zoom="12.294985"
     inkscape:cx="20.538645"
     inkscape:cy="37.690552"
     inkscape:current-layer="layer1"
     showgrid="true"
     inkscape:document-units="px"
     inkscape:grid-bbox="true"
     inkscape:window-width="1920"
     inkscape:window-height="1053"
     inkscape:window-x="0"
     inkscape:window-y="27"
     inkscape:window-maximized="1"
     inkscape:document-rotation="0" />
  <metadata
     id="metadata4337">
    <rdf:RDF>
      <cc:Work
         rdf:about="">
        <dc:format>image/svg+xml</dc:format>
        <dc:type
           rdf:resource="http://purl.org/dc/dcmitype/StillImage" />
        <dc:title></dc:title>
      </cc:Work>
    </rdf:RDF>
  </metadata>
  <g
     id="layer1"
     inkscape:label="Layer 1"
     inkscape:groupmode="layer">
    <g
       style="display:inline"
       id="g2036"
       transform="matrix(1.5000021,0,0,0.5555561,-4.0000114,35.888881)">
      <g
         style="opacity:0.4"
         id="g3712"
         transform="matrix(1.052632,0,0,1.285713,-1.263158,-13.42854)">
        <rect
           style="fill:url(#radialGradient2873-966-168-714);fill-opacity:1;stroke:none"
           id="rect2801"
           y="40"
           x="38"
           height="7"
           width="5" />
        <rect
           style="fill:url(#radialGradient2875-742-326-419);fill-opacity:1;stroke:none"
           id="rect3696"
           transform="scale(-1,-1)"
           y="-47"
           x="-10"
           height="7"
           width="5" />
        <rect
           style="fill:url(#linearGradient2877-634-617-908);fill-opacity:1;stroke:none"
           id="rect3700"
           y="40"
           x="10"
           height="7.0000005"
           width="28" />
      </g>
    </g>
    <rect
       width="55"
       height="55"
       rx="3"
       ry="3"
       x="4.5"
       y="4.5"
       id="rect5505-21-3-8-5-2-9"
       style="color:#000000;display:inline;overflow:visible;visibility:visible;mix-blend-mode:normal;fill:#ed333b;fill-opacity:1;fill-rule:nonzero;stroke:none;stroke-width:1;marker:none;enable-background:accumulate" />
    <rect
       style="opacity:0.3;fill:none;stroke:url(#linearGradient3904);stroke-width:1;stroke-linecap:round;stroke-linejoin:round;stroke-miterlimit:4;stroke-opacity:1;stroke-dasharray:none;stroke-dashoffset:0"
       id="rect6741"
       y="5.428761"
       x="5.5"
       ry="2"
       rx="2"
       height="53.142479"
       width="53" />
    <rect
       style="opacity:0.5;color:#000000;fill:none;stroke:#1c2c38;stroke-width:1;stroke-linecap:round;stroke-linejoin:round;stroke-miterlimit:4;stroke-opacity:1;stroke-dasharray:none;stroke-dashoffset:0;marker:none;visibility:visible;display:inline;overflow:visible;enable-background:accumulate"
       id="rect5505-21-9"
       y="4.5"
       x="4.5"
       ry="3"
       rx="3"
       height="55"
       width="55" />
    <g
       aria-label="#"
       id="text882-6">
      <path
         d="m 20.070138,43.934249 -4.106665,0.28 q -2.893333,0 -3.266666,-1.4 -0.28,-1.306666 1.773333,-2.986665 2.239999,-1.773333 3.266665,-1.026666 1.026667,0.746666 1.026667,1.679999 1.026666,-0.186667 1.959999,-0.28 0.933333,-0.09333 1.773333,-0.186667 0.279999,-1.773332 0.653333,-3.453332 0.373333,-1.679999 0.746666,-3.453332 -3.359999,0.466667 -5.506665,1.213333 l -0.186666,0.186667 q -1.493333,0.746666 -2.519999,-0.186667 -0.933333,-1.026666 -0.186667,-2.519999 1.773333,-1.493333 4.293332,-1.773332 2.519999,-0.373334 4.853331,-0.746667 0.186667,-0.746666 0.28,-1.493333 0.186667,-0.839999 0.56,-2.519999 1.213333,-6.066664 0.84,-8.866663 0.28,-1.679999 1.773332,-1.679999 1.4,0 1.96,1.586666 0.28,2.519999 -0.186667,5.133331 -0.373333,2.519999 -0.653333,4.106665 -0.28,1.493333 -0.373333,1.96 0,0.466666 -0.186667,0.933332 2.426666,-0.559999 8.119997,-1.586666 2.146666,-8.119996 2.613332,-14.279994 0.186667,-0.933333 0.84,-1.306666 0.653333,-0.466667 1.306666,-0.373333 0.653333,0.09333 1.12,0.653333 0.466666,0.466666 0.28,2.706665 -0.28,3.453332 -2.239999,12.039996 3.173332,-0.373334 6.439997,-0.56 1.586666,0.653333 1.586666,1.959999 0,1.493333 -1.679999,1.773333 -3.546665,0.186666 -7.373331,0.746666 -0.466666,1.866666 -1.026666,3.639999 -0.466666,1.679999 -0.933333,3.453332 6.999997,-1.12 12.039995,-1.4 1.586667,0.56 1.586667,1.866666 0,1.493333 -1.68,1.866666 -6.533331,0.373333 -12.879995,1.68 -1.306666,5.413331 -1.679999,11.013329 -0.186667,1.866666 -1.773333,2.053332 -0.653333,0 -1.306666,-0.466666 -0.56,-0.466667 -0.653333,-1.493333 0.373333,-5.319998 1.493333,-10.359996 -2.24,0.466666 -7.186664,1.213333 -0.56,3.359999 -0.84,6.346664 -0.653333,1.586666 -2.053333,1.4 -1.306666,-0.186667 -1.586666,-1.866666 0.09333,-1.68 0.653333,-5.413332 -0.933333,0.186667 -1.773332,0.186667 z m 7.839997,-11.479996 q -0.466667,1.773333 -0.84,3.546666 -0.28,1.679999 -0.653333,3.359998 3.733332,-0.559999 7.466664,-1.306666 0.466666,-1.866666 0.933333,-3.546665 0.466666,-1.773333 0.933333,-3.639999 -1.959999,0.373333 -3.919999,0.746667 -1.959999,0.373333 -3.919998,0.839999 z"
         id="path881" />
    </g>
    <g
       aria-label="#"
       id="text882">
      <path
         d="m 20.070138,43.301108 -4.106665,0.28 q -2.893333,0 -3.266666,-1.399999 -0.28,-1.306666 1.773333,-2.986666 2.239999,-1.773332 3.266665,-1.026666 1.026667,0.746666 1.026667,1.679999 1.026666,-0.186666 1.959999,-0.28 0.933333,-0.09333 1.773333,-0.186666 0.279999,-1.773333 0.653333,-3.453332 0.373333,-1.68 0.746666,-3.453332 -3.359999,0.466666 -5.506665,1.213333 l -0.186666,0.186666 q -1.493333,0.746667 -2.519999,-0.186666 -0.933333,-1.026667 -0.186667,-2.519999 1.773333,-1.493333 4.293332,-1.773333 2.519999,-0.373333 4.853331,-0.746666 0.186667,-0.746667 0.28,-1.493333 0.186667,-0.84 0.56,-2.519999 1.213333,-6.066665 0.84,-8.866663 0.28,-1.68 1.773332,-1.68 1.4,0 1.96,1.586666 0.28,2.519999 -0.186667,5.133332 -0.373333,2.519999 -0.653333,4.106665 -0.28,1.493332 -0.373333,1.959999 0,0.466666 -0.186667,0.933333 2.426666,-0.56 8.119997,-1.586666 2.146666,-8.119997 2.613332,-14.279995 0.186667,-0.933333 0.84,-1.306666 0.653333,-0.466666 1.306666,-0.373333 0.653333,0.09333 1.12,0.653333 0.466666,0.466667 0.28,2.706666 -0.28,3.453332 -2.239999,12.039995 3.173332,-0.373333 6.439997,-0.56 1.586666,0.653333 1.586666,1.96 0,1.493332 -1.679999,1.773332 -3.546665,0.186667 -7.373331,0.746667 -0.466666,1.866666 -1.026666,3.639998 -0.466666,1.68 -0.933333,3.453332 6.999997,-1.119999 12.039995,-1.399999 1.586667,0.56 1.586667,1.866666 0,1.493332 -1.68,1.866666 -6.533331,0.373333 -12.879995,1.679999 -1.306666,5.413331 -1.679999,11.013329 -0.186667,1.866666 -1.773333,2.053333 -0.653333,0 -1.306666,-0.466667 -0.56,-0.466666 -0.653333,-1.493333 0.373333,-5.319998 1.493333,-10.359996 -2.24,0.466667 -7.186664,1.213333 -0.56,3.359999 -0.84,6.346664 -0.653333,1.586667 -2.053333,1.4 -1.306666,-0.186667 -1.586666,-1.866666 0.09333,-1.679999 0.653333,-5.413331 -0.933333,0.186666 -1.773332,0.186666 z m 7.839997,-11.479995 q -0.466667,1.773332 -0.84,3.546665 -0.28,1.679999 -0.653333,3.359999 3.733332,-0.56 7.466664,-1.306666 0.466666,-1.866666 0.933333,-3.546666 0.466666,-1.773332 0.933333,-3.639998 -1.959999,0.373333 -3.919999,0.746666 -1.959999,0.373333 -3.919998,0.84 z"
         id="path878" />
    </g>
  </g>
</svg>
